<?xml version="1.0" standalone="no"?>
 <!DOCTYPE svg PUBLIC "-//W3C//DTD SVG 1.1//EN" 
 "http://www.w3.org/Graphics/SVG/1.1/DTD/svg11.dtd"> 
<svg xmlns="http://www.w3.org/2000/svg" version="1.1" 
    width="2.77876cm" height="1.905cm" viewBox="0 0 10940 7500 ">
<title>SVG Picture created as signal_conditioning-F_Cu.svg date 2013/06/23 16:51:01 </title>
  <desc>Picture generated by PCBNEW </desc>
<g style="fill:#000000; fill-opacity:1;stroke:#000000; stroke-opacity:1;
stroke-linecap:round; stroke-linejoin:round; "
 transform="translate(0 0) scale(1 1)">
</g>
<g style="fill:#000000; fill-opacity:0.0; 
stroke:#000000; stroke-width:39.3701; stroke-opacity:1; 
stroke-linecap:round; stroke-linejoin:round;">
</g>
<g style="fill:#000000; fill-opacity:1.0; 
stroke:#000000; stroke-width:39.3701; stroke-opacity:1; 
stroke-linecap:round; stroke-linejoin:round;">
<polyline style="fill-rule:evenodd;"
points="3389,4940
3389,4530
3549,4530
3549,4940
3389,4940
" /> 
<polyline style="fill-rule:evenodd;"
points="3889,4940
3889,4530
4049,4530
4049,4940
3889,4940
" /> 
<polyline style="fill-rule:evenodd;"
points="4389,4940
4389,4530
4549,4530
4549,4940
4389,4940
" /> 
<polyline style="fill-rule:evenodd;"
points="4889,4940
4889,4530
5049,4530
5049,4940
4889,4940
" /> 
<polyline style="fill-rule:evenodd;"
points="5389,4940
5389,4530
5549,4530
5549,4940
5389,4940
" /> 
<polyline style="fill-rule:evenodd;"
points="5889,4940
5889,4530
6049,4530
6049,4940
5889,4940
" /> 
<polyline style="fill-rule:evenodd;"
points="6389,4940
6389,4530
6549,4530
6549,4940
6389,4940
" /> 
<polyline style="fill-rule:evenodd;"
points="6389,2840
6389,2430
6549,2430
6549,2840
6389,2840
" /> 
<polyline style="fill-rule:evenodd;"
points="5889,2840
5889,2430
6049,2430
6049,2840
5889,2840
" /> 
<polyline style="fill-rule:evenodd;"
points="5389,2840
5389,2430
5549,2430
5549,2840
5389,2840
" /> 
<polyline style="fill-rule:evenodd;"
points="4889,2840
4889,2430
5049,2430
5049,2840
4889,2840
" /> 
<polyline style="fill-rule:evenodd;"
points="4389,2840
4389,2430
4549,2430
4549,2840
4389,2840
" /> 
<polyline style="fill-rule:evenodd;"
points="3889,2840
3889,2430
4049,2430
4049,2840
3889,2840
" /> 
<polyline style="fill-rule:evenodd;"
points="3389,2840
3389,2430
3549,2430
3549,2840
3389,2840
" /> 
<polyline style="fill-rule:evenodd;"
points="3020,5661
2509,5661
2509,5351
3020,5351
3020,5661
" /> 
<polyline style="fill-rule:evenodd;"
points="3020,4911
2509,4911
2509,4601
3020,4601
3020,4911
" /> 
<polyline style="fill-rule:evenodd;"
points="4714,6176
5224,6176
5224,6486
4714,6486
4714,6176
" /> 
<polyline style="fill-rule:evenodd;"
points="4714,6926
5224,6926
5224,7236
4714,7236
4714,6926
" /> 
<polyline style="fill-rule:evenodd;"
points="6918,1687
7429,1687
7429,1998
6918,1998
6918,1687
" /> 
<polyline style="fill-rule:evenodd;"
points="6918,2437
7429,2437
7429,2748
6918,2748
6918,2437
" /> 
<polyline style="fill-rule:evenodd;"
points="5224,1331
4714,1331
4714,1020
5224,1020
5224,1331
" /> 
<polyline style="fill-rule:evenodd;"
points="5224,581
4714,581
4714,270
5224,270
5224,581
" /> 
<polyline style="fill-rule:evenodd;"
points="7429,5661
6918,5661
6918,5351
7429,5351
7429,5661
" /> 
<polyline style="fill-rule:evenodd;"
points="7429,4911
6918,4911
6918,4601
7429,4601
7429,4911
" /> 
<polyline style="fill-rule:evenodd;"
points="6918,6176
7429,6176
7429,6486
6918,6486
6918,6176
" /> 
<polyline style="fill-rule:evenodd;"
points="6918,6926
7429,6926
7429,7236
6918,7236
6918,6926
" /> 
<polyline style="fill-rule:evenodd;"
points="2509,1687
3020,1687
3020,1998
2509,1998
2509,1687
" /> 
<polyline style="fill-rule:evenodd;"
points="2509,2437
3020,2437
3020,2748
2509,2748
2509,2437
" /> 
<polyline style="fill-rule:evenodd;"
points="3020,1331
2509,1331
2509,1020
3020,1020
3020,1331
" /> 
<polyline style="fill-rule:evenodd;"
points="3020,581
2509,581
2509,270
3020,270
3020,581
" /> 
<polyline style="fill-rule:evenodd;"
points="1470,6573
909,6573
909,6012
1470,6012
1470,6573
" /> 
<circle cx="1190" cy="5293.09" r="280.315" /> 
<circle cx="1190" cy="4293.09" r="280.315" /> 
<circle cx="1190" cy="3293.09" r="280.315" /> 
<circle cx="1190" cy="2293.09" r="280.315" /> 
<circle cx="1190" cy="1293.09" r="280.315" /> 
<polyline style="fill-rule:evenodd;"
points="9958,6541
9397,6541
9397,5981
9958,5981
9958,6541
" /> 
<circle cx="9677.87" cy="5261.43" r="280.315" /> 
<circle cx="9677.87" cy="4261.43" r="280.315" /> 
<circle cx="9677.87" cy="3261.43" r="280.315" /> 
<circle cx="9677.87" cy="2261.43" r="280.315" /> 
<circle cx="9677.87" cy="1261.43" r="280.315" /> 
<polyline style="fill-rule:evenodd;"
points="3591,6430
3591,6194
3788,6194
3788,6430
3591,6430
" /> 
<polyline style="fill-rule:evenodd;"
points="3788,5486
3788,5249
4103,5249
4103,5486
3788,5486
" /> 
<polyline style="fill-rule:evenodd;"
points="4103,6430
4103,6194
4300,6194
4300,6430
4103,6430
" /> 
<polyline style="fill-rule:evenodd;"
points="6347,919
6347,1155
6150,1155
6150,919
6347,919
" /> 
<polyline style="fill-rule:evenodd;"
points="6150,1863
6150,2100
5835,2100
5835,1863
6150,1863
" /> 
<polyline style="fill-rule:evenodd;"
points="5835,919
5835,1155
5638,1155
5638,919
5835,919
" /> 
<polyline style="fill-rule:evenodd;"
points="5638,6430
5638,6194
5835,6194
5835,6430
5638,6430
" /> 
<polyline style="fill-rule:evenodd;"
points="5835,5486
5835,5249
6150,5249
6150,5486
5835,5486
" /> 
<polyline style="fill-rule:evenodd;"
points="6150,6430
6150,6194
6347,6194
6347,6430
6150,6430
" /> 
<polyline style="fill-rule:evenodd;"
points="4300,919
4300,1155
4103,1155
4103,919
4300,919
" /> 
<polyline style="fill-rule:evenodd;"
points="4103,1863
4103,2100
3788,2100
3788,1863
4103,1863
" /> 
<polyline style="fill-rule:evenodd;"
points="3788,919
3788,1155
3591,1155
3591,919
3788,919
" /> 
<polyline style="fill-rule:evenodd;"
points="2509,6097
3020,6097
3020,6408
2509,6408
2509,6097
" /> 
<polyline style="fill-rule:evenodd;"
points="2509,6847
3020,6847
3020,7158
2509,7158
2509,6847
" /> 
<polyline style="fill-rule:evenodd;"
points="7802,891
8313,891
8313,1201
7802,1201
7802,891
" /> 
<polyline style="fill-rule:evenodd;"
points="7802,1641
8313,1641
8313,1951
7802,1951
7802,1641
" /> 
<polyline style="fill-rule:evenodd;"
points="8313,3511
7802,3511
7802,3201
8313,3201
8313,3511
" /> 
<polyline style="fill-rule:evenodd;"
points="8313,2761
7802,2761
7802,2451
8313,2451
8313,2761
" /> 
<polyline style="fill-rule:evenodd;"
points="7822,3851
8333,3851
8333,4161
7822,4161
7822,3851
" /> 
<polyline style="fill-rule:evenodd;"
points="7822,4601
8333,4601
8333,4911
7822,4911
7822,4601
" /> 
<polyline style="fill-rule:evenodd;"
points="8333,6431
7822,6431
7822,6121
8333,6121
8333,6431
" /> 
<polyline style="fill-rule:evenodd;"
points="8333,5681
7822,5681
7822,5371
8333,5371
8333,5681
" /> 
</g>
<g style="fill:#000000; fill-opacity:1.0; 
stroke:#000000; stroke-width:129.921; stroke-opacity:1; 
stroke-linecap:round; stroke-linejoin:round;">
<path d="M8057 1046
L8442 1046
" />
<path d="M10217 2121
L10217 3741
" />
<path d="M9857 1761
L10217 2121
" />
<path d="M9157 1761
L9857 1761
" />
<path d="M8442 1046
L9157 1761
" />
<path d="M10217 3741
L10217 5721
" />
<path d="M10217 5721
L9677 6261
" />
<path d="M8077 6276
L9662 6276
" />
<path d="M9662 6276
L9677 6261
" />
<path d="M5737 6489
L5746 6489
" />
<path d="M7652 6701
L8077 6276
" />
<path d="M5957 6701
L7652 6701
" />
<path d="M5746 6489
L5957 6701
" />
<path d="M8077 3681
L9457 3681
" />
<path d="M9457 3681
L9517 3741
" />
<path d="M9517 3741
L10217 3741
" />
<path d="M8077 4006
L8077 3681
" />
<path d="M8077 3681
L8077 3376
" />
<path d="M8077 3376
L8057 3356
" />
<path d="M8057 1046
L6258 1046
" />
<path d="M6258 1046
L6249 1037
" />
<path d="M3690 6312
L2824 6312
" />
<path d="M2824 6312
L2805 6293
" />
<path d="M2805 6293
L1190 6293
" />
<path d="M4969 4735
L4969 4423
" />
<path d="M717 5820
L1190 6293
" />
<path d="M717 4974
L717 5820
" />
<path d="M796 4895
L717 4974
" />
<path d="M875 4816
L796 4895
" />
<path d="M1504 4816
L875 4816
" />
<path d="M2134 4186
L1504 4816
" />
<path d="M4733 4186
L2134 4186
" />
<path d="M4969 4423
L4733 4186
" />
<path d="M3690 6312
L3690 6450
" />
<path d="M3690 6450
L3945 6706
" />
<path d="M3945 6706
L5520 6706
" />
<path d="M5520 6706
L5717 6509
" />
<path d="M5717 6509
L5737 6489
" />
<path d="M5737 6489
L5737 6312
" />
<path d="M4201 1037
L4201 860
" />
<path d="M6249 899
L6249 1037
" />
<path d="M6071 722
L6249 899
" />
<path d="M5441 722
L6071 722
" />
<path d="M5363 800
L5441 722
" />
<path d="M4260 800
L5363 800
" />
<path d="M4201 860
L4260 800
" />
<path d="M5520 5919
L7685 5919
" />
<path d="M5520 5919
L5205 5604
" />
<path d="M4497 5604
L5205 5604
" />
<path d="M7685 5919
L8077 5526
" />
<path d="M8077 5526
L9412 5526
" />
<path d="M9412 5526
L9677 5261
" />
<path d="M2764 5506
L3218 5506
" />
<path d="M4339 5761
L4497 5604
" />
<path d="M3473 5761
L4339 5761
" />
<path d="M3218 5506
L3473 5761
" />
<path d="M4497 5604
L4469 5604
" />
<path d="M4469 4735
L4469 5604
" />
<path d="M8057 2606
L9022 2606
" />
<path d="M9022 2606
L9677 3261
" />
<path d="M8057 2606
L7937 2606
" />
<path d="M7937 2606
L7174 1843
" />
<path d="M6662 1706
L6623 1667
" />
<path d="M5599 1667
L5469 1797
" />
<path d="M6623 1667
L5599 1667
" />
<path d="M7174 1843
L6799 1843
" />
<path d="M5469 1797
L5469 2635
" />
<path d="M6799 1843
L6662 1706
" />
<path d="M7174 5506
L7327 5506
" />
<path d="M7327 5506
L8077 4756
" />
<path d="M8077 4756
L9182 4756
" />
<path d="M9182 4756
L9677 4261
" />
<path d="M7174 5506
L6599 5506
" />
</g>
<g style="fill:#000000; fill-opacity:1.0; 
stroke:#000000; stroke-width:100; stroke-opacity:1; 
stroke-linecap:round; stroke-linejoin:round;">
<path d="M5469 5552
L5469 4735
" />
<path d="M5599 5682
L5469 5552
" />
<path d="M6423 5682
L5599 5682
" />
</g>
<g style="fill:#000000; fill-opacity:1.0; 
stroke:#000000; stroke-width:129.921; stroke-opacity:1; 
stroke-linecap:round; stroke-linejoin:round;">
<path d="M6599 5506
L6423 5682
" />
<path d="M9677 2261
L8522 2261
" />
<path d="M8522 2261
L8057 1796
" />
<path d="M7725 1430
L7725 1463
" />
</g>
<g style="fill:#000000; fill-opacity:1.0; 
stroke:#000000; stroke-width:100; stroke-opacity:1; 
stroke-linecap:round; stroke-linejoin:round;">
<path d="M5205 1745
L5520 1430
" />
</g>
<g style="fill:#000000; fill-opacity:1.0; 
stroke:#000000; stroke-width:129.921; stroke-opacity:1; 
stroke-linecap:round; stroke-linejoin:round;">
<path d="M5520 1430
L7725 1430
" />
<path d="M4469 1745
L5205 1745
" />
<path d="M7725 1463
L8057 1796
" />
<path d="M2764 1843
L3139 1843
" />
<path d="M4469 1639
L4469 1745
" />
<path d="M4469 1745
L4469 2635
" />
<path d="M4339 1509
L4469 1639
" />
<path d="M3473 1509
L4339 1509
" />
<path d="M3139 1843
L3473 1509
" />
<path d="M1190 5293
L1894 5293
" />
<path d="M1894 5293
L2431 4756
" />
<path d="M2764 4756
L2431 4756
" />
<path d="M2764 4756
L3448 4756
" />
<path d="M3448 4756
L3469 4735
" />
<path d="M1190 3293
L1241 3293
" />
<path d="M1241 3293
L1426 3478
" />
<path d="M6469 3001
L5993 3478
" />
<path d="M5993 3478
L1426 3478
" />
<path d="M6469 2635
L6469 3001
" />
<path d="M7174 2593
L6511 2593
" />
<path d="M6511 2593
L6469 2635
" />
<path d="M1190 4293
L1241 4293
" />
<path d="M6469 4269
L6469 4735
" />
<path d="M5993 3793
L6469 4269
" />
<path d="M1741 3793
L5993 3793
" />
<path d="M1241 4293
L1741 3793
" />
<path d="M6469 4735
L7153 4735
" />
<path d="M7153 4735
L7174 4756
" />
<path d="M1190 2293
L1815 2293
" />
<path d="M2116 2593
L2764 2593
" />
<path d="M1815 2293
L2116 2593
" />
<path d="M2764 2593
L3427 2593
" />
<path d="M3427 2593
L3469 2635
" />
<path d="M4969 425
L8842 425
" />
<path d="M8842 425
L9677 1261
" />
<path d="M4969 7081
L2843 7081
" />
<path d="M2843 7081
L2764 7002
" />
<path d="M875 2769
L638 2533
" />
<path d="M4969 2926
L4733 3163
" />
<path d="M4733 3163
L1819 3163
" />
<path d="M1819 3163
L1426 2769
" />
<path d="M1426 2769
L875 2769
" />
<path d="M4969 2635
L4969 2926
" />
<path d="M638 1844
L1190 1293
" />
<path d="M638 2533
L638 1844
" />
<path d="M1190 1293
L1190 1273
" />
<path d="M2213 407
L2213 425
" />
<path d="M2056 407
L2213 407
" />
<path d="M1190 1273
L2056 407
" />
<path d="M7174 7081
L4969 7081
" />
<path d="M2764 425
L4969 425
" />
<path d="M2213 425
L2764 425
" />
<path d="M6249 6312
L7155 6312
" />
<path d="M7155 6312
L7174 6331
" />
<path d="M4969 6331
L4220 6331
" />
<path d="M4220 6331
L4201 6312
" />
<path d="M3945 5367
L3945 4759
" />
<path d="M3945 4759
L3969 4735
" />
<path d="M5737 1037
L5108 1037
" />
<path d="M5108 1037
L4969 1175
" />
<path d="M5969 2635
L5969 2005
" />
<path d="M5969 2005
L5993 1982
" />
<path d="M5993 5367
L5993 4759
" />
<path d="M5993 4759
L5969 4735
" />
<path d="M3690 1037
L2903 1037
" />
<path d="M2903 1037
L2764 1175
" />
<path d="M3945 1982
L3945 2611
" />
<path d="M3945 2611
L3969 2635
" />
</g>
<g style="fill:#000000; fill-opacity:1.0; 
stroke:#000000; stroke-width:39.3701; stroke-opacity:1; 
stroke-linecap:round; stroke-linejoin:round;">
<polyline style="fill-rule:evenodd;"
points="5915,3110
5862,3163
1731,3163
1656,2981
1501,2827
1420,2793
1501,2759
1652,2608
1685,2608
1893,2815
1995,2884
2116,2908
2277,2908
2277,2909
2348,2980
2440,3018
2539,3018
3089,3018
3153,2991
3157,3002
3227,3072
3319,3110
3419,3110
3619,3110
3711,3072
3719,3064
3727,3072
3819,3110
3919,3110
4119,3110
4211,3072
4219,3064
4227,3072
4319,3110
4419,3110
4619,3110
4711,3072
4719,3064
4727,3072
4819,3110
4857,3110
4919,3048
4919,2685
4911,2685
4911,2585
4919,2585
4919,2223
4857,2160
4819,2160
4784,2175
4784,2060
5154,2060
5154,2175
5119,2160
5082,2160
5019,2223
5019,2585
5027,2585
5027,2685
5019,2685
5019,3048
5082,3110
5119,3110
5211,3072
5219,3064
5227,3072
5319,3110
5419,3110
5619,3110
5711,3072
5719,3064
5727,3072
5819,3110
5915,3110
" /> 
</g>
<g style="fill:#000000; fill-opacity:0.0; 
stroke:#000000; stroke-width:100; stroke-opacity:1; 
stroke-linecap:round; stroke-linejoin:round;">
<polyline fill="none;"
points="5915,3110
5862,3163
1731,3163
1656,2981
1501,2827
1420,2793
1501,2759
1652,2608
1685,2608
1893,2815
1995,2884
2116,2908
2277,2908
2277,2909
2348,2980
2440,3018
2539,3018
3089,3018
3153,2991
3157,3002
3227,3072
3319,3110
3419,3110
3619,3110
3711,3072
3719,3064
3727,3072
3819,3110
3919,3110
4119,3110
4211,3072
4219,3064
4227,3072
4319,3110
4419,3110
4619,3110
4711,3072
4719,3064
4727,3072
4819,3110
4857,3110
4919,3048
4919,2685
4911,2685
4911,2585
4919,2585
4919,2223
4857,2160
4819,2160
4784,2175
4784,2060
5154,2060
5154,2175
5119,2160
5082,2160
5019,2223
5019,2585
5027,2585
5027,2685
5019,2685
5019,3048
5082,3110
5119,3110
5211,3072
5219,3064
5227,3072
5319,3110
5419,3110
5619,3110
5711,3072
5719,3064
5727,3072
5819,3110
5915,3110
" /> 
</g>
<g style="fill:#000000; fill-opacity:1.0; 
stroke:#000000; stroke-width:39.3701; stroke-opacity:1; 
stroke-linecap:round; stroke-linejoin:round;">
<polyline style="fill-rule:evenodd;"
points="10897,7221
10697,7221
10532,7221
7699,7221
7699,7193
7636,7131
7224,7131
7224,7139
7124,7139
7124,7131
6711,7131
6649,7193
6649,7221
5494,7221
5494,7193
5432,7131
5019,7131
5019,7139
4919,7139
4919,7131
4507,7131
4444,7193
4444,7221
3289,7221
3289,7115
3227,7052
2814,7052
2814,7060
2714,7060
2714,7052
2302,7052
2239,7115
2239,7221
247,7221
247,71
2315,71
2277,109
2239,201
2239,313
2302,375
2714,375
2714,368
2814,368
2814,375
3227,375
3289,313
3289,201
3251,109
3213,71
4520,71
4482,109
4444,201
4444,313
4507,375
4919,375
4919,368
5019,368
5019,375
5027,375
5027,475
5019,475
5019,483
4919,483
4919,475
4507,475
4496,486
4260,486
4140,509
4038,578
3979,637
3946,685
3945,685
3857,649
3758,649
3522,649
3430,687
3395,722
3260,722
3289,650
3289,538
3227,475
2814,475
2814,483
2714,483
2714,475
2302,475
2239,538
2239,650
2277,742
2336,800
2277,859
2239,951
2239,1050
2239,1400
2277,1492
2294,1509
2277,1526
2239,1618
2239,1718
2239,2068
2277,2159
2336,2218
2277,2276
2277,2278
2246,2278
2038,2070
1936,2002
1815,1978
1744,1978
1744,1374
1733,1156
1671,1005
1575,977
1505,1048
1505,907
1477,811
1271,738
1053,749
902,811
874,907
1190,1222
1505,907
1505,1048
1260,1293
1575,1608
1671,1580
1744,1374
1744,1978
1652,1978
1501,1827
1426,1795
1477,1774
1505,1678
1190,1363
1119,1434
1119,1293
804,977
708,1005
635,1211
646,1429
708,1580
804,1608
1119,1293
1119,1434
874,1678
902,1774
957,1794
878,1826
724,1981
640,2183
639,2402
723,2604
878,2759
959,2793
878,2826
724,2981
640,3183
639,3402
723,3604
878,3759
959,3793
878,3826
724,3981
640,4183
639,4402
704,4558
652,4593
573,4672
573,4672
494,4751
426,4853
402,4974
402,5820
426,5941
494,6043
640,6188
640,6642
678,6734
748,6805
840,6843
939,6843
1539,6843
1631,6805
1701,6734
1740,6642
1740,6608
2316,6608
2336,6627
2277,6686
2239,6778
2239,6890
2302,6952
2714,6952
2714,6944
2814,6944
2814,6952
3227,6952
3289,6890
3289,6778
3251,6686
3193,6627
3395,6627
3430,6662
3475,6681
3723,6929
3825,6997
3945,7021
4496,7021
4507,7031
4919,7031
4919,7023
5019,7023
5019,7031
5432,7031
5442,7021
5520,7021
5520,7021
5641,6997
5743,6929
5796,6965
5837,6992
5837,6992
5957,7016
6696,7016
6711,7031
7124,7031
7124,7023
7224,7023
7224,7031
7636,7031
7651,7016
7652,7016
7652,7016
7773,6992
7875,6924
8098,6701
8402,6701
8494,6663
8564,6593
8565,6591
9127,6591
9127,6611
9165,6703
9236,6773
9328,6811
9427,6811
10027,6811
10119,6773
10189,6703
10227,6611
10227,6511
10227,6156
10440,5944
10440,5944
10508,5841
10532,5721
10532,5721
10532,3741
10532,2121
10508,2000
10440,1898
10106,1564
10159,1549
10232,1343
10221,1124
10159,973
10063,946
9993,1016
9993,875
9965,780
9759,706
9541,717
9390,780
9362,875
9677,1190
9993,875
9993,1016
9748,1261
9754,1267
9683,1337
9677,1332
9672,1337
9601,1267
9607,1261
9291,946
9196,973
9123,1179
9128,1286
8665,823
8563,755
8554,753
8544,729
8474,659
8382,621
8283,621
7733,621
7641,659
7570,729
7570,731
6552,731
6508,687
6463,668
6294,499
6192,431
6071,407
5494,407
5494,375
5432,375
5494,313
5494,201
5456,109
5418,71
10897,71
10897,271
10897,7221
" /> 
</g>
<g style="fill:#000000; fill-opacity:0.0; 
stroke:#000000; stroke-width:100; stroke-opacity:1; 
stroke-linecap:round; stroke-linejoin:round;">
<polyline fill="none;"
points="10897,7221
10697,7221
10532,7221
7699,7221
7699,7193
7636,7131
7224,7131
7224,7139
7124,7139
7124,7131
6711,7131
6649,7193
6649,7221
5494,7221
5494,7193
5432,7131
5019,7131
5019,7139
4919,7139
4919,7131
4507,7131
4444,7193
4444,7221
3289,7221
3289,7115
3227,7052
2814,7052
2814,7060
2714,7060
2714,7052
2302,7052
2239,7115
2239,7221
247,7221
247,71
2315,71
2277,109
2239,201
2239,313
2302,375
2714,375
2714,368
2814,368
2814,375
3227,375
3289,313
3289,201
3251,109
3213,71
4520,71
4482,109
4444,201
4444,313
4507,375
4919,375
4919,368
5019,368
5019,375
5027,375
5027,475
5019,475
5019,483
4919,483
4919,475
4507,475
4496,486
4260,486
4140,509
4038,578
3979,637
3946,685
3945,685
3857,649
3758,649
3522,649
3430,687
3395,722
3260,722
3289,650
3289,538
3227,475
2814,475
2814,483
2714,483
2714,475
2302,475
2239,538
2239,650
2277,742
2336,800
2277,859
2239,951
2239,1050
2239,1400
2277,1492
2294,1509
2277,1526
2239,1618
2239,1718
2239,2068
2277,2159
2336,2218
2277,2276
2277,2278
2246,2278
2038,2070
1936,2002
1815,1978
1744,1978
1744,1374
1733,1156
1671,1005
1575,977
1505,1048
1505,907
1477,811
1271,738
1053,749
902,811
874,907
1190,1222
1505,907
1505,1048
1260,1293
1575,1608
1671,1580
1744,1374
1744,1978
1652,1978
1501,1827
1426,1795
1477,1774
1505,1678
1190,1363
1119,1434
1119,1293
804,977
708,1005
635,1211
646,1429
708,1580
804,1608
1119,1293
1119,1434
874,1678
902,1774
957,1794
878,1826
724,1981
640,2183
639,2402
723,2604
878,2759
959,2793
878,2826
724,2981
640,3183
639,3402
723,3604
878,3759
959,3793
878,3826
724,3981
640,4183
639,4402
704,4558
652,4593
573,4672
573,4672
494,4751
426,4853
402,4974
402,5820
426,5941
494,6043
640,6188
640,6642
678,6734
748,6805
840,6843
939,6843
1539,6843
1631,6805
1701,6734
1740,6642
1740,6608
2316,6608
2336,6627
2277,6686
2239,6778
2239,6890
2302,6952
2714,6952
2714,6944
2814,6944
2814,6952
3227,6952
3289,6890
3289,6778
3251,6686
3193,6627
3395,6627
3430,6662
3475,6681
3723,6929
3825,6997
3945,7021
4496,7021
4507,7031
4919,7031
4919,7023
5019,7023
5019,7031
5432,7031
5442,7021
5520,7021
5520,7021
5641,6997
5743,6929
5796,6965
5837,6992
5837,6992
5957,7016
6696,7016
6711,7031
7124,7031
7124,7023
7224,7023
7224,7031
7636,7031
7651,7016
7652,7016
7652,7016
7773,6992
7875,6924
8098,6701
8402,6701
8494,6663
8564,6593
8565,6591
9127,6591
9127,6611
9165,6703
9236,6773
9328,6811
9427,6811
10027,6811
10119,6773
10189,6703
10227,6611
10227,6511
10227,6156
10440,5944
10440,5944
10508,5841
10532,5721
10532,5721
10532,3741
10532,2121
10508,2000
10440,1898
10106,1564
10159,1549
10232,1343
10221,1124
10159,973
10063,946
9993,1016
9993,875
9965,780
9759,706
9541,717
9390,780
9362,875
9677,1190
9993,875
9993,1016
9748,1261
9754,1267
9683,1337
9677,1332
9672,1337
9601,1267
9607,1261
9291,946
9196,973
9123,1179
9128,1286
8665,823
8563,755
8554,753
8544,729
8474,659
8382,621
8283,621
7733,621
7641,659
7570,729
7570,731
6552,731
6508,687
6463,668
6294,499
6192,431
6071,407
5494,407
5494,375
5432,375
5494,313
5494,201
5456,109
5418,71
10897,71
10897,271
10897,7221
" /> 
</g>
<g style="fill:#FFFFFF; fill-opacity:0.0; 
stroke:#FFFFFF; stroke-width:39.3701; stroke-opacity:1; 
stroke-linecap:round; stroke-linejoin:round;">
</g>
<g style="fill:#FFFFFF; fill-opacity:1.0; 
stroke:#FFFFFF; stroke-width:39.3701; stroke-opacity:1; 
stroke-linecap:round; stroke-linejoin:round;">
<circle cx="1190" cy="6293.09" r="180.315" /> 
<circle cx="1190" cy="5293.09" r="180.315" /> 
<circle cx="1190" cy="4293.09" r="180.315" /> 
<circle cx="1190" cy="3293.09" r="180.315" /> 
<circle cx="1190" cy="2293.09" r="180.315" /> 
<circle cx="1190" cy="1293.09" r="180.315" /> 
<circle cx="9677.87" cy="6261.43" r="180.315" /> 
<circle cx="9677.87" cy="5261.43" r="180.315" /> 
<circle cx="9677.87" cy="4261.43" r="180.315" /> 
<circle cx="9677.87" cy="3261.43" r="180.315" /> 
<circle cx="9677.87" cy="2261.43" r="180.315" /> 
<circle cx="9677.87" cy="1261.43" r="180.315" /> 
</g> 
</svg>
