<?xml version="1.0" standalone="no"?>
 <!DOCTYPE svg PUBLIC "-//W3C//DTD SVG 1.1//EN" 
 "http://www.w3.org/Graphics/SVG/1.1/DTD/svg11.dtd"> 
<svg xmlns="http://www.w3.org/2000/svg" version="1.1" 
    width="2.77876cm" height="1.905cm" viewBox="0 0 10940 7500 ">
<title>SVG Picture created as signal_conditioning-F_Mask.svg date 2013/06/23 16:51:01 </title>
  <desc>Picture generated by PCBNEW </desc>
<g style="fill:#000000; fill-opacity:1;stroke:#000000; stroke-opacity:1;
stroke-linecap:round; stroke-linejoin:round; "
 transform="translate(0 0) scale(1 1)">
</g>
<g style="fill:#000000; fill-opacity:0.0; 
stroke:#000000; stroke-width:39.3701; stroke-opacity:1; 
stroke-linecap:round; stroke-linejoin:round;">
</g>
<g style="fill:#000000; fill-opacity:1.0; 
stroke:#000000; stroke-width:39.3701; stroke-opacity:1; 
stroke-linecap:round; stroke-linejoin:round;">
<polyline style="fill-rule:evenodd;"
points="3389,4940
3389,4530
3549,4530
3549,4940
3389,4940
" /> 
<polyline style="fill-rule:evenodd;"
points="3889,4940
3889,4530
4049,4530
4049,4940
3889,4940
" /> 
<polyline style="fill-rule:evenodd;"
points="4389,4940
4389,4530
4549,4530
4549,4940
4389,4940
" /> 
<polyline style="fill-rule:evenodd;"
points="4889,4940
4889,4530
5049,4530
5049,4940
4889,4940
" /> 
<polyline style="fill-rule:evenodd;"
points="5389,4940
5389,4530
5549,4530
5549,4940
5389,4940
" /> 
<polyline style="fill-rule:evenodd;"
points="5889,4940
5889,4530
6049,4530
6049,4940
5889,4940
" /> 
<polyline style="fill-rule:evenodd;"
points="6389,4940
6389,4530
6549,4530
6549,4940
6389,4940
" /> 
<polyline style="fill-rule:evenodd;"
points="6389,2840
6389,2430
6549,2430
6549,2840
6389,2840
" /> 
<polyline style="fill-rule:evenodd;"
points="5889,2840
5889,2430
6049,2430
6049,2840
5889,2840
" /> 
<polyline style="fill-rule:evenodd;"
points="5389,2840
5389,2430
5549,2430
5549,2840
5389,2840
" /> 
<polyline style="fill-rule:evenodd;"
points="4889,2840
4889,2430
5049,2430
5049,2840
4889,2840
" /> 
<polyline style="fill-rule:evenodd;"
points="4389,2840
4389,2430
4549,2430
4549,2840
4389,2840
" /> 
<polyline style="fill-rule:evenodd;"
points="3889,2840
3889,2430
4049,2430
4049,2840
3889,2840
" /> 
<polyline style="fill-rule:evenodd;"
points="3389,2840
3389,2430
3549,2430
3549,2840
3389,2840
" /> 
<polyline style="fill-rule:evenodd;"
points="3020,5661
2509,5661
2509,5351
3020,5351
3020,5661
" /> 
<polyline style="fill-rule:evenodd;"
points="3020,4911
2509,4911
2509,4601
3020,4601
3020,4911
" /> 
<polyline style="fill-rule:evenodd;"
points="4714,6176
5224,6176
5224,6486
4714,6486
4714,6176
" /> 
<polyline style="fill-rule:evenodd;"
points="4714,6926
5224,6926
5224,7236
4714,7236
4714,6926
" /> 
<polyline style="fill-rule:evenodd;"
points="6918,1687
7429,1687
7429,1998
6918,1998
6918,1687
" /> 
<polyline style="fill-rule:evenodd;"
points="6918,2437
7429,2437
7429,2748
6918,2748
6918,2437
" /> 
<polyline style="fill-rule:evenodd;"
points="5224,1331
4714,1331
4714,1020
5224,1020
5224,1331
" /> 
<polyline style="fill-rule:evenodd;"
points="5224,581
4714,581
4714,270
5224,270
5224,581
" /> 
<polyline style="fill-rule:evenodd;"
points="7429,5661
6918,5661
6918,5351
7429,5351
7429,5661
" /> 
<polyline style="fill-rule:evenodd;"
points="7429,4911
6918,4911
6918,4601
7429,4601
7429,4911
" /> 
<polyline style="fill-rule:evenodd;"
points="6918,6176
7429,6176
7429,6486
6918,6486
6918,6176
" /> 
<polyline style="fill-rule:evenodd;"
points="6918,6926
7429,6926
7429,7236
6918,7236
6918,6926
" /> 
<polyline style="fill-rule:evenodd;"
points="2509,1687
3020,1687
3020,1998
2509,1998
2509,1687
" /> 
<polyline style="fill-rule:evenodd;"
points="2509,2437
3020,2437
3020,2748
2509,2748
2509,2437
" /> 
<polyline style="fill-rule:evenodd;"
points="3020,1331
2509,1331
2509,1020
3020,1020
3020,1331
" /> 
<polyline style="fill-rule:evenodd;"
points="3020,581
2509,581
2509,270
3020,270
3020,581
" /> 
<polyline style="fill-rule:evenodd;"
points="1470,6573
909,6573
909,6012
1470,6012
1470,6573
" /> 
<circle cx="1190" cy="5293.09" r="280.315" /> 
<circle cx="1190" cy="4293.09" r="280.315" /> 
<circle cx="1190" cy="3293.09" r="280.315" /> 
<circle cx="1190" cy="2293.09" r="280.315" /> 
<circle cx="1190" cy="1293.09" r="280.315" /> 
<polyline style="fill-rule:evenodd;"
points="9958,6541
9397,6541
9397,5981
9958,5981
9958,6541
" /> 
<circle cx="9677.87" cy="5261.43" r="280.315" /> 
<circle cx="9677.87" cy="4261.43" r="280.315" /> 
<circle cx="9677.87" cy="3261.43" r="280.315" /> 
<circle cx="9677.87" cy="2261.43" r="280.315" /> 
<circle cx="9677.87" cy="1261.43" r="280.315" /> 
<polyline style="fill-rule:evenodd;"
points="3591,6430
3591,6194
3788,6194
3788,6430
3591,6430
" /> 
<polyline style="fill-rule:evenodd;"
points="3788,5486
3788,5249
4103,5249
4103,5486
3788,5486
" /> 
<polyline style="fill-rule:evenodd;"
points="4103,6430
4103,6194
4300,6194
4300,6430
4103,6430
" /> 
<polyline style="fill-rule:evenodd;"
points="6347,919
6347,1155
6150,1155
6150,919
6347,919
" /> 
<polyline style="fill-rule:evenodd;"
points="6150,1863
6150,2100
5835,2100
5835,1863
6150,1863
" /> 
<polyline style="fill-rule:evenodd;"
points="5835,919
5835,1155
5638,1155
5638,919
5835,919
" /> 
<polyline style="fill-rule:evenodd;"
points="5638,6430
5638,6194
5835,6194
5835,6430
5638,6430
" /> 
<polyline style="fill-rule:evenodd;"
points="5835,5486
5835,5249
6150,5249
6150,5486
5835,5486
" /> 
<polyline style="fill-rule:evenodd;"
points="6150,6430
6150,6194
6347,6194
6347,6430
6150,6430
" /> 
<polyline style="fill-rule:evenodd;"
points="4300,919
4300,1155
4103,1155
4103,919
4300,919
" /> 
<polyline style="fill-rule:evenodd;"
points="4103,1863
4103,2100
3788,2100
3788,1863
4103,1863
" /> 
<polyline style="fill-rule:evenodd;"
points="3788,919
3788,1155
3591,1155
3591,919
3788,919
" /> 
<polyline style="fill-rule:evenodd;"
points="2509,6097
3020,6097
3020,6408
2509,6408
2509,6097
" /> 
<polyline style="fill-rule:evenodd;"
points="2509,6847
3020,6847
3020,7158
2509,7158
2509,6847
" /> 
<polyline style="fill-rule:evenodd;"
points="7802,891
8313,891
8313,1201
7802,1201
7802,891
" /> 
<polyline style="fill-rule:evenodd;"
points="7802,1641
8313,1641
8313,1951
7802,1951
7802,1641
" /> 
<polyline style="fill-rule:evenodd;"
points="8313,3511
7802,3511
7802,3201
8313,3201
8313,3511
" /> 
<polyline style="fill-rule:evenodd;"
points="8313,2761
7802,2761
7802,2451
8313,2451
8313,2761
" /> 
<polyline style="fill-rule:evenodd;"
points="7822,3851
8333,3851
8333,4161
7822,4161
7822,3851
" /> 
<polyline style="fill-rule:evenodd;"
points="7822,4601
8333,4601
8333,4911
7822,4911
7822,4601
" /> 
<polyline style="fill-rule:evenodd;"
points="8333,6431
7822,6431
7822,6121
8333,6121
8333,6431
" /> 
<polyline style="fill-rule:evenodd;"
points="8333,5681
7822,5681
7822,5371
8333,5371
8333,5681
" /> 
</g> 
</svg>
